<?xml version="1.0" standalone="no"?>
<!DOCTYPE svg PUBLIC "-//W3C//DTD SVG 20010904//EN"
 "http://www.w3.org/TR/2001/REC-SVG-20010904/DTD/svg10.dtd">
<svg version="1.0" xmlns="http://www.w3.org/2000/svg"
 width="512.000000pt" height="512.000000pt" viewBox="0 0 512.000000 512.000000"
 preserveAspectRatio="xMidYMid meet">
<metadata>
Created by potrace 1.11, written by Peter Selinger 2001-2013
</metadata>
<g transform="translate(0.000000,512.000000) scale(0.100000,-0.100000)"
fill="#000000" stroke="none">
<path d="M2007 5083 c-13 -21 -53 -89 -88 -151 -35 -62 -71 -125 -80 -140 -9
-15 -59 -101 -111 -192 -53 -91 -114 -196 -136 -235 l-41 -70 -472 0 -471 0
-145 -250 c-80 -137 -194 -333 -253 -435 -59 -102 -112 -195 -118 -206 -10
-19 11 -60 164 -325 96 -167 179 -311 184 -319 31 -50 110 -194 110 -202 0 -4
-33 -66 -74 -136 -41 -70 -83 -143 -93 -162 -11 -19 -69 -120 -130 -225 -61
-104 -119 -205 -129 -224 -11 -18 -24 -43 -31 -54 -10 -18 -7 -30 19 -77 29
-51 218 -377 237 -410 5 -8 42 -71 82 -140 39 -69 95 -166 125 -215 l53 -91
463 1 c255 1 469 -1 475 -3 7 -2 25 -27 41 -55 39 -72 51 -91 259 -449 l184
-318 527 0 527 0 90 156 c50 86 99 172 111 192 136 240 265 457 278 467 8 6
184 10 480 10 l467 -1 56 96 c30 52 70 120 88 150 17 30 111 193 208 362 l177
306 -81 139 c-44 76 -84 145 -89 153 -5 8 -36 61 -69 118 -34 57 -61 105 -61
107 0 3 -16 29 -35 59 -19 30 -35 57 -35 59 0 3 -24 46 -54 97 l-55 92 21 36
c12 21 34 60 50 87 16 28 33 57 38 65 6 8 41 69 79 135 37 66 116 202 175 302
58 101 106 189 106 196 0 12 -158 291 -329 582 -26 44 -80 136 -120 205 l-73
126 -470 -1 c-258 0 -473 2 -478 5 -4 3 -25 36 -46 73 -22 38 -45 78 -51 90
-7 12 -95 164 -196 337 l-183 315 -527 3 -527 2 -23 -37z"/>
</g>
</svg>
